<?xml version="1.0" encoding="UTF-8" standalone="no"?><svg xmlns="http://www.w3.org/2000/svg" xmlns:xlink="http://www.w3.org/1999/xlink" contentScriptType="application/ecmascript" contentStyleType="text/css" height="806px" preserveAspectRatio="none" style="width:160px;height:806px;" version="1.1" viewBox="0 0 160 806" width="160px" zoomAndPan="magnify"><defs><filter height="300%" id="f16qmm9r986ko" width="300%" x="-1" y="-1"><feGaussianBlur result="blurOut" stdDeviation="2.0"/><feColorMatrix in="blurOut" result="blurOut2" type="matrix" values="0 0 0 0 0 0 0 0 0 0 0 0 0 0 0 0 0 0 .4 0"/><feOffset dx="4.0" dy="4.0" in="blurOut2" result="blurOut3"/><feBlend in="SourceGraphic" in2="blurOut3" mode="normal"/></filter></defs><g><!--MD5=[33bc05e2a5796f4e66723f49de0f3356]
class Lutador--><rect fill="#FEFECE" filter="url(#f16qmm9r986ko)" height="463.0781" id="Lutador" style="stroke: #A80036; stroke-width: 1.5;" width="126" x="6" y="332"/><ellipse cx="44.4" cy="348" fill="#ADD1B2" rx="11" ry="11" style="stroke: #A80036; stroke-width: 1.0;"/><path d="M47.1656,343.875 Q47.3219,343.6563 47.5094,343.5469 Q47.6969,343.4375 47.9156,343.4375 Q48.2906,343.4375 48.525,343.7031 Q48.7594,343.9531 48.7594,344.5625 L48.7594,346.0156 Q48.7594,346.625 48.525,346.8906 Q48.2906,347.1563 47.9156,347.1563 Q47.5719,347.1563 47.3688,346.9531 Q47.1656,346.7656 47.0563,346.25 Q47.0094,345.8906 46.8219,345.7031 Q46.4938,345.3281 45.8844,345.1094 Q45.275,344.8906 44.65,344.8906 Q43.8844,344.8906 43.2438,345.2188 Q42.6188,345.5469 42.1188,346.2969 Q41.6344,347.0469 41.6344,348.0781 L41.6344,349.1719 Q41.6344,350.4063 42.525,351.2344 Q43.4156,352.0469 45.0094,352.0469 Q45.9469,352.0469 46.6031,351.7969 Q46.9938,351.6406 47.4156,351.2031 Q47.6813,350.9375 47.8219,350.8594 Q47.9781,350.7813 48.1813,350.7813 Q48.5094,350.7813 48.7594,351.0469 Q49.025,351.2969 49.025,351.6406 Q49.025,351.9844 48.6813,352.3906 Q48.1813,352.9688 47.3844,353.2969 Q46.3063,353.75 45.0094,353.75 Q43.4938,353.75 42.2906,353.125 Q41.3063,352.625 40.6188,351.5625 Q39.9313,350.4844 39.9313,349.2031 L39.9313,348.0469 Q39.9313,346.7188 40.5406,345.5781 Q41.1656,344.4219 42.2594,343.8125 Q43.3531,343.1875 44.5875,343.1875 Q45.3219,343.1875 45.9625,343.3594 Q46.6188,343.5156 47.1656,343.875 Z "/><text fill="#000000" font-family="sans-serif" font-size="12" lengthAdjust="spacingAndGlyphs" textLength="42" x="63.6" y="352.9102">Lutador</text><line style="stroke: #A80036; stroke-width: 1.5;" x1="7" x2="131" y1="364" y2="364"/><rect fill="none" height="6" style="stroke: #C82930; stroke-width: 1.0;" width="6" x="14" y="372"/><text fill="#000000" font-family="sans-serif" font-size="11" lengthAdjust="spacingAndGlyphs" textLength="60" x="26" y="379.4189">String: nome</text><rect fill="none" height="6" style="stroke: #C82930; stroke-width: 1.0;" width="6" x="14" y="385.8359"/><text fill="#000000" font-family="sans-serif" font-size="11" lengthAdjust="spacingAndGlyphs" textLength="100" x="26" y="393.2549">String: nacionalidade</text><rect fill="none" height="6" style="stroke: #C82930; stroke-width: 1.0;" width="6" x="14" y="399.6719"/><text fill="#000000" font-family="sans-serif" font-size="11" lengthAdjust="spacingAndGlyphs" textLength="43" x="26" y="407.0908">int: idade</text><rect fill="none" height="6" style="stroke: #C82930; stroke-width: 1.0;" width="6" x="14" y="413.5078"/><text fill="#000000" font-family="sans-serif" font-size="11" lengthAdjust="spacingAndGlyphs" textLength="51" x="26" y="420.9268">float: peso</text><rect fill="none" height="6" style="stroke: #C82930; stroke-width: 1.0;" width="6" x="14" y="427.3438"/><text fill="#000000" font-family="sans-serif" font-size="11" lengthAdjust="spacingAndGlyphs" textLength="54" x="26" y="434.7627">float: altura</text><rect fill="none" height="6" style="stroke: #C82930; stroke-width: 1.0;" width="6" x="14" y="441.1797"/><text fill="#000000" font-family="sans-serif" font-size="11" lengthAdjust="spacingAndGlyphs" textLength="79" x="26" y="448.5986">String: categoria</text><rect fill="none" height="6" style="stroke: #C82930; stroke-width: 1.0;" width="6" x="14" y="455.0156"/><text fill="#000000" font-family="sans-serif" font-size="11" lengthAdjust="spacingAndGlyphs" textLength="52" x="26" y="462.4346">int: vitorias</text><rect fill="none" height="6" style="stroke: #C82930; stroke-width: 1.0;" width="6" x="14" y="468.8516"/><text fill="#000000" font-family="sans-serif" font-size="11" lengthAdjust="spacingAndGlyphs" textLength="58" x="26" y="476.2705">int: derrotas</text><rect fill="none" height="6" style="stroke: #C82930; stroke-width: 1.0;" width="6" x="14" y="482.6875"/><text fill="#000000" font-family="sans-serif" font-size="11" lengthAdjust="spacingAndGlyphs" textLength="58" x="26" y="490.1064">int: empates</text><line style="stroke: #A80036; stroke-width: 1.5;" x1="7" x2="131" y1="496.5234" y2="496.5234"/><ellipse cx="17" cy="507.5234" fill="#84BE84" rx="3" ry="3" style="stroke: #038048; stroke-width: 1.0;"/><text fill="#000000" font-family="sans-serif" font-size="11" lengthAdjust="spacingAndGlyphs" textLength="38" x="26" y="511.9424">status()</text><ellipse cx="17" cy="521.3594" fill="#84BE84" rx="3" ry="3" style="stroke: #038048; stroke-width: 1.0;"/><text fill="#000000" font-family="sans-serif" font-size="11" lengthAdjust="spacingAndGlyphs" textLength="65" x="26" y="525.7783">ganlharLuta()</text><ellipse cx="17" cy="535.1953" fill="#84BE84" rx="3" ry="3" style="stroke: #038048; stroke-width: 1.0;"/><text fill="#000000" font-family="sans-serif" font-size="11" lengthAdjust="spacingAndGlyphs" textLength="61" x="26" y="539.6143">perderLuta()</text><ellipse cx="17" cy="549.0313" fill="#84BE84" rx="3" ry="3" style="stroke: #038048; stroke-width: 1.0;"/><text fill="#000000" font-family="sans-serif" font-size="11" lengthAdjust="spacingAndGlyphs" textLength="68" x="26" y="553.4502">empatarLuta()</text><ellipse cx="17" cy="562.8672" fill="#84BE84" rx="3" ry="3" style="stroke: #038048; stroke-width: 1.0;"/><text fill="#000000" font-family="sans-serif" font-size="11" lengthAdjust="spacingAndGlyphs" textLength="50" x="26" y="567.2861">getNome()</text><ellipse cx="17" cy="576.7031" fill="#84BE84" rx="3" ry="3" style="stroke: #038048; stroke-width: 1.0;"/><text fill="#000000" font-family="sans-serif" font-size="11" lengthAdjust="spacingAndGlyphs" textLength="50" x="26" y="581.1221">setNome()</text><ellipse cx="17" cy="590.5391" fill="#84BE84" rx="3" ry="3" style="stroke: #038048; stroke-width: 1.0;"/><text fill="#000000" font-family="sans-serif" font-size="11" lengthAdjust="spacingAndGlyphs" textLength="90" x="26" y="594.958">getNacionalidade()</text><ellipse cx="17" cy="604.375" fill="#84BE84" rx="3" ry="3" style="stroke: #038048; stroke-width: 1.0;"/><text fill="#000000" font-family="sans-serif" font-size="11" lengthAdjust="spacingAndGlyphs" textLength="49" x="26" y="608.7939">getIdade()</text><ellipse cx="17" cy="618.2109" fill="#84BE84" rx="3" ry="3" style="stroke: #038048; stroke-width: 1.0;"/><text fill="#000000" font-family="sans-serif" font-size="11" lengthAdjust="spacingAndGlyphs" textLength="49" x="26" y="622.6299">setIdade()</text><ellipse cx="17" cy="632.0469" fill="#84BE84" rx="3" ry="3" style="stroke: #038048; stroke-width: 1.0;"/><text fill="#000000" font-family="sans-serif" font-size="11" lengthAdjust="spacingAndGlyphs" textLength="47" x="26" y="636.4658">getPeso()</text><ellipse cx="17" cy="645.8828" fill="#84BE84" rx="3" ry="3" style="stroke: #038048; stroke-width: 1.0;"/><text fill="#000000" font-family="sans-serif" font-size="11" lengthAdjust="spacingAndGlyphs" textLength="47" x="26" y="650.3018">setPeso()</text><ellipse cx="17" cy="659.7188" fill="#84BE84" rx="3" ry="3" style="stroke: #038048; stroke-width: 1.0;"/><text fill="#000000" font-family="sans-serif" font-size="11" lengthAdjust="spacingAndGlyphs" textLength="56" x="26" y="664.1377">getaAtura()</text><ellipse cx="17" cy="673.5547" fill="#84BE84" rx="3" ry="3" style="stroke: #038048; stroke-width: 1.0;"/><text fill="#000000" font-family="sans-serif" font-size="11" lengthAdjust="spacingAndGlyphs" textLength="56" x="26" y="677.9736">setaAtura()</text><ellipse cx="17" cy="687.3906" fill="#84BE84" rx="3" ry="3" style="stroke: #038048; stroke-width: 1.0;"/><text fill="#000000" font-family="sans-serif" font-size="11" lengthAdjust="spacingAndGlyphs" textLength="69" x="26" y="691.8096">getCategoria()</text><ellipse cx="17" cy="701.2266" fill="#84BE84" rx="3" ry="3" style="stroke: #038048; stroke-width: 1.0;"/><text fill="#000000" font-family="sans-serif" font-size="11" lengthAdjust="spacingAndGlyphs" textLength="69" x="26" y="705.6455">setCategoria()</text><ellipse cx="17" cy="715.0625" fill="#84BE84" rx="3" ry="3" style="stroke: #038048; stroke-width: 1.0;"/><text fill="#000000" font-family="sans-serif" font-size="11" lengthAdjust="spacingAndGlyphs" textLength="60" x="26" y="719.4814">getVitorias()</text><ellipse cx="17" cy="728.8984" fill="#84BE84" rx="3" ry="3" style="stroke: #038048; stroke-width: 1.0;"/><text fill="#000000" font-family="sans-serif" font-size="11" lengthAdjust="spacingAndGlyphs" textLength="60" x="26" y="733.3174">setVitorias()</text><ellipse cx="17" cy="742.7344" fill="#84BE84" rx="3" ry="3" style="stroke: #038048; stroke-width: 1.0;"/><text fill="#000000" font-family="sans-serif" font-size="11" lengthAdjust="spacingAndGlyphs" textLength="65" x="26" y="747.1533">getDerrotas()</text><ellipse cx="17" cy="756.5703" fill="#84BE84" rx="3" ry="3" style="stroke: #038048; stroke-width: 1.0;"/><text fill="#000000" font-family="sans-serif" font-size="11" lengthAdjust="spacingAndGlyphs" textLength="65" x="26" y="760.9893">setDerrotas()</text><ellipse cx="17" cy="770.4063" fill="#84BE84" rx="3" ry="3" style="stroke: #038048; stroke-width: 1.0;"/><text fill="#000000" font-family="sans-serif" font-size="11" lengthAdjust="spacingAndGlyphs" textLength="64" x="26" y="774.8252">getEmpates()</text><ellipse cx="17" cy="784.2422" fill="#84BE84" rx="3" ry="3" style="stroke: #038048; stroke-width: 1.0;"/><text fill="#000000" font-family="sans-serif" font-size="11" lengthAdjust="spacingAndGlyphs" textLength="64" x="26" y="788.6611">setEmpates()</text><!--MD5=[d4de4fb36113c2400a86238ab437d77b]
class Luta--><rect fill="#FEFECE" filter="url(#f16qmm9r986ko)" height="48" id="Luta" style="stroke: #A80036; stroke-width: 1.5;" width="56" x="83" y="224"/><ellipse cx="98" cy="240" fill="#ADD1B2" rx="11" ry="11" style="stroke: #A80036; stroke-width: 1.0;"/><path d="M100.7656,235.875 Q100.9219,235.6563 101.1094,235.5469 Q101.2969,235.4375 101.5156,235.4375 Q101.8906,235.4375 102.125,235.7031 Q102.3594,235.9531 102.3594,236.5625 L102.3594,238.0156 Q102.3594,238.625 102.125,238.8906 Q101.8906,239.1563 101.5156,239.1563 Q101.1719,239.1563 100.9688,238.9531 Q100.7656,238.7656 100.6563,238.25 Q100.6094,237.8906 100.4219,237.7031 Q100.0938,237.3281 99.4844,237.1094 Q98.875,236.8906 98.25,236.8906 Q97.4844,236.8906 96.8438,237.2188 Q96.2188,237.5469 95.7188,238.2969 Q95.2344,239.0469 95.2344,240.0781 L95.2344,241.1719 Q95.2344,242.4063 96.125,243.2344 Q97.0156,244.0469 98.6094,244.0469 Q99.5469,244.0469 100.2031,243.7969 Q100.5938,243.6406 101.0156,243.2031 Q101.2813,242.9375 101.4219,242.8594 Q101.5781,242.7813 101.7813,242.7813 Q102.1094,242.7813 102.3594,243.0469 Q102.625,243.2969 102.625,243.6406 Q102.625,243.9844 102.2813,244.3906 Q101.7813,244.9688 100.9844,245.2969 Q99.9063,245.75 98.6094,245.75 Q97.0938,245.75 95.8906,245.125 Q94.9063,244.625 94.2188,243.5625 Q93.5313,242.4844 93.5313,241.2031 L93.5313,240.0469 Q93.5313,238.7188 94.1406,237.5781 Q94.7656,236.4219 95.8594,235.8125 Q96.9531,235.1875 98.1875,235.1875 Q98.9219,235.1875 99.5625,235.3594 Q100.2188,235.5156 100.7656,235.875 Z "/><text fill="#000000" font-family="sans-serif" font-size="12" lengthAdjust="spacingAndGlyphs" textLength="24" x="112" y="244.9102">Luta</text><line style="stroke: #A80036; stroke-width: 1.5;" x1="84" x2="138" y1="256" y2="256"/><line style="stroke: #A80036; stroke-width: 1.5;" x1="84" x2="138" y1="264" y2="264"/><!--MD5=[a7fe746e63beac1c0be8f3a5acdac4a0]
class Evento--><rect fill="#FEFECE" filter="url(#f16qmm9r986ko)" height="48" id="Evento" style="stroke: #A80036; stroke-width: 1.5;" width="69" x="80.5" y="116"/><ellipse cx="95.5" cy="132" fill="#ADD1B2" rx="11" ry="11" style="stroke: #A80036; stroke-width: 1.0;"/><path d="M98.2656,127.875 Q98.4219,127.6563 98.6094,127.5469 Q98.7969,127.4375 99.0156,127.4375 Q99.3906,127.4375 99.625,127.7031 Q99.8594,127.9531 99.8594,128.5625 L99.8594,130.0156 Q99.8594,130.625 99.625,130.8906 Q99.3906,131.1563 99.0156,131.1563 Q98.6719,131.1563 98.4688,130.9531 Q98.2656,130.7656 98.1563,130.25 Q98.1094,129.8906 97.9219,129.7031 Q97.5938,129.3281 96.9844,129.1094 Q96.375,128.8906 95.75,128.8906 Q94.9844,128.8906 94.3438,129.2188 Q93.7188,129.5469 93.2188,130.2969 Q92.7344,131.0469 92.7344,132.0781 L92.7344,133.1719 Q92.7344,134.4063 93.625,135.2344 Q94.5156,136.0469 96.1094,136.0469 Q97.0469,136.0469 97.7031,135.7969 Q98.0938,135.6406 98.5156,135.2031 Q98.7813,134.9375 98.9219,134.8594 Q99.0781,134.7813 99.2813,134.7813 Q99.6094,134.7813 99.8594,135.0469 Q100.125,135.2969 100.125,135.6406 Q100.125,135.9844 99.7813,136.3906 Q99.2813,136.9688 98.4844,137.2969 Q97.4063,137.75 96.1094,137.75 Q94.5938,137.75 93.3906,137.125 Q92.4063,136.625 91.7188,135.5625 Q91.0313,134.4844 91.0313,133.2031 L91.0313,132.0469 Q91.0313,130.7188 91.6406,129.5781 Q92.2656,128.4219 93.3594,127.8125 Q94.4531,127.1875 95.6875,127.1875 Q96.4219,127.1875 97.0625,127.3594 Q97.7188,127.5156 98.2656,127.875 Z "/><text fill="#000000" font-family="sans-serif" font-size="12" lengthAdjust="spacingAndGlyphs" textLength="37" x="109.5" y="136.9102">Evento</text><line style="stroke: #A80036; stroke-width: 1.5;" x1="81.5" x2="148.5" y1="148" y2="148"/><line style="stroke: #A80036; stroke-width: 1.5;" x1="81.5" x2="148.5" y1="156" y2="156"/><!--MD5=[a6c9e238f417599fc39c7b51b0ff2913]
class Enpresa--><rect fill="#FEFECE" filter="url(#f16qmm9r986ko)" height="48" id="Enpresa" style="stroke: #A80036; stroke-width: 1.5;" width="79" x="31.5" y="8"/><ellipse cx="46.5" cy="24" fill="#ADD1B2" rx="11" ry="11" style="stroke: #A80036; stroke-width: 1.0;"/><path d="M49.2656,19.875 Q49.4219,19.6563 49.6094,19.5469 Q49.7969,19.4375 50.0156,19.4375 Q50.3906,19.4375 50.625,19.7031 Q50.8594,19.9531 50.8594,20.5625 L50.8594,22.0156 Q50.8594,22.625 50.625,22.8906 Q50.3906,23.1563 50.0156,23.1563 Q49.6719,23.1563 49.4688,22.9531 Q49.2656,22.7656 49.1563,22.25 Q49.1094,21.8906 48.9219,21.7031 Q48.5938,21.3281 47.9844,21.1094 Q47.375,20.8906 46.75,20.8906 Q45.9844,20.8906 45.3438,21.2188 Q44.7188,21.5469 44.2188,22.2969 Q43.7344,23.0469 43.7344,24.0781 L43.7344,25.1719 Q43.7344,26.4063 44.625,27.2344 Q45.5156,28.0469 47.1094,28.0469 Q48.0469,28.0469 48.7031,27.7969 Q49.0938,27.6406 49.5156,27.2031 Q49.7813,26.9375 49.9219,26.8594 Q50.0781,26.7813 50.2813,26.7813 Q50.6094,26.7813 50.8594,27.0469 Q51.125,27.2969 51.125,27.6406 Q51.125,27.9844 50.7813,28.3906 Q50.2813,28.9688 49.4844,29.2969 Q48.4063,29.75 47.1094,29.75 Q45.5938,29.75 44.3906,29.125 Q43.4063,28.625 42.7188,27.5625 Q42.0313,26.4844 42.0313,25.2031 L42.0313,24.0469 Q42.0313,22.7188 42.6406,21.5781 Q43.2656,20.4219 44.3594,19.8125 Q45.4531,19.1875 46.6875,19.1875 Q47.4219,19.1875 48.0625,19.3594 Q48.7188,19.5156 49.2656,19.875 Z "/><text fill="#000000" font-family="sans-serif" font-size="12" lengthAdjust="spacingAndGlyphs" textLength="47" x="60.5" y="28.9102">Enpresa</text><line style="stroke: #A80036; stroke-width: 1.5;" x1="32.5" x2="109.5" y1="40" y2="40"/><line style="stroke: #A80036; stroke-width: 1.5;" x1="32.5" x2="109.5" y1="48" y2="48"/><!--MD5=[4a9f5cdc6524c4c5cf431acd43c839dd]
reverse link Evento to Luta--><path d="M113.629,177.338 C113.05,192.681 112.393,210.098 111.88,223.678 " fill="none" id="Evento&lt;-Luta" style="stroke: #A80036; stroke-width: 1.0;"/><polygon fill="#A80036" points="114.132,164,109.9087,169.845,113.6797,175.9915,117.903,170.1465,114.132,164" style="stroke: #A80036; stroke-width: 1.0;"/><!--MD5=[c97ffe90f29d4a0241498cc0bcd2e4a5]
reverse link Luta to Lutador--><path d="M106.161,285.122 C104.4016,298.253 102.26,314.238 99.9025,331.835 " fill="none" id="Luta&lt;-Lutador" style="stroke: #A80036; stroke-width: 1.0;"/><polygon fill="#FFFFFF" points="107.912,272.052,103.1509,277.4679,106.319,283.9458,111.0801,278.5299,107.912,272.052" style="stroke: #A80036; stroke-width: 1.0;"/><!--MD5=[2817eddca68983467a2da559a8d8fa22]
link Enpresa to Lutador--><path d="M68.1604,56.212 C66.2747,72.831 63.9733,95.756 63,116 C61.9754,137.309 62.8394,142.667 63,164 C63.3961,216.617 64.0863,273.138 64.861,326.601 " fill="none" id="Enpresa-&gt;Lutador" style="stroke: #A80036; stroke-width: 1.0;"/><polygon fill="#A80036" points="64.9362,331.765,68.8046,322.7077,64.8633,326.7655,60.8055,322.8242,64.9362,331.765" style="stroke: #A80036; stroke-width: 1.0;"/><!--MD5=[95cbe6574579b34b59b0f16579ec387d]
link Enpresa to Evento--><path d="M80.5473,56 C87.2472,72.141 96.2444,93.816 103.3644,110.969 " fill="none" id="Enpresa-&gt;Evento" style="stroke: #A80036; stroke-width: 1.0;"/><polygon fill="#A80036" points="105.3193,115.678,105.5654,105.8322,103.4034,111.0596,98.176,108.8976,105.3193,115.678" style="stroke: #A80036; stroke-width: 1.0;"/><!--MD5=[eb44d2180eb9a248cfe6bb2abe288efd]
@startuml teste 
class Lutador{
    - String: nome
    - String: nacionalidade
    - int: idade
    - float: peso
    - float: altura
    - String: categoria
    - int: vitorias
    - int: derrotas
    - int: empates

    + status()
    + ganlharLuta()
    + perderLuta()
    + empatarLuta()


    + getNome()
    + setNome()
    + getNacionalidade()
    + getIdade()
    + setIdade()
    + getPeso()
    + setPeso()
    + getaAtura()
    + setaAtura()
    + getCategoria()
    + setCategoria()
    + getVitorias()
    + setVitorias()
    + getDerrotas()
    + setDerrotas()
    + getEmpates()
    + setEmpates()
    
}
class Luta{

}
Evento *- - Luta
Luta o- - Lutador
Enpresa - -> Lutador
Enpresa - -> Evento
@enduml

PlantUML version 1.2020.10(Sun May 17 06:35:57 BRT 2020)
(GPL source distribution)
Java Runtime: OpenJDK Runtime Environment
JVM: OpenJDK 64-Bit Server VM
Java Version: 15+36
Operating System: Windows 10
Default Encoding: Cp1252
Language: pt
Country: BR
--></g></svg>